# xmcd
#
# Track frame offsets: 
#        150
#        11925
#        24886
#        37380
#        49450
#        61698
#        72608
#        83134
#        93716
#        107928
#        120901
#        134139
#        146261
#        156765
#        169967
#        180733
#        190617
#        201317
#        214273
#        227836
#        237457
#        251399
#        263756
#        276888
#        291331
#        306452
#        318038
#
# Disc length: 4400 seconds
#
# Revision: 0
# Processed by: cddbd v1.5.2PL0 Copyright (c) Steve Scherf et al.
# Submitted via: ExactAudioCopyFreeDBPlugin 1.0
#
DISCID=9e112e1b
DTITLE=Various Artist - Christmas "Round The Jukebox
DYEAR=2016
DGENRE=R&B
TTITLE0=Joe Turner - Christmas Date Boogie
TTITLE1=The Five Keys - Its Christmas Time
TTITLE2=Chuck Berry - Run Rudolph Run
TTITLE3=The Drifters - White Christmas
TTITLE4=Charles Brown - Please Come Home For Christmas
TTITLE5=The Moonglows - Hey Santa Claus
TTITLE6=The Cadillacs - Rudolph The Red Nosed Reindeer
TTITLE7=Jimmy McCracklin - Christmas Time (Part 1)
TTITLE8=The Ravens - White Christmas
TTITLE9=The Ravens - Silent Night
TTITLE10=The Falcons - Can This Be Christmas
TTITLE11=Jimmy Liggins - I Want My Baby For Christmas
TTITLE12=Mabel Scott - Boogie Woogie Santa Claus
TTITLE13=Charles Brown - Merry Christmas Baby
TTITLE14=Lowell Fulson - Lonesome Christmas (Part 1)
TTITLE15=Lowell Fulson - Lonesome Christmas (Part 2)
TTITLE16=Johnny Moore's Three Blazers  - Christmas Eve Baby
TTITLE17=Cecil Gant - Hello Santa Claus
TTITLE18=Jimmy Witherspoon - How I Hate To See Christmas Come Around
TTITLE19=The Harmony Grits - Santa Claus Is Coming To Town
TTITLE20=Roy Milton - Christmas Time Blues
TTITLE21=The Dominoes - Christmas In Heaven
TTITLE22=Amos Milburn - Let's Make Christmas Merry Baby
TTITLE23=Louis Jordan - May Every Day Be Christmas
TTITLE24=The Orioles - (It's Gonna Be) Lonely Christmas
TTITLE25=Big John Greer - We Want To See Santa Do The Mambo
TTITLE26=B.B. King - Christmas Celebration
EXTD=
EXTT0=
EXTT1=
EXTT2=
EXTT3=
EXTT4=
EXTT5=
EXTT6=
EXTT7=
EXTT8=
EXTT9=
EXTT10=
EXTT11=
EXTT12=
EXTT13=
EXTT14=
EXTT15=
EXTT16=
EXTT17=
EXTT18=
EXTT19=
EXTT20=
EXTT21=
EXTT22=
EXTT23=
EXTT24=
EXTT25=
EXTT26=
PLAYORDER=
